# xmcd CD database file
#
# Track frame offsets:
#	150
#	11255
#	25137
#	37097
#	50245
#	63017
#	76872
#	88147
#	98454
#	110265
#	121175
#	135115
#	147922
#	157940
#	177362
#	189455
#	200530
#	228722
#	257702
#	288370
#	302535
#	315577
#	325845
#	339515
#
# Disc length: 4710 seconds
#
# Revision: 0
# Processed by: cddbd v1.5.1PL0 Copyright (c) Steve Scherf et al.
# Submitted via: CDex 1.51
#
DISCID=3a126418
DTITLE=Ray Charles - Ray, rare and live
DYEAR=2003
DGENRE=Blues
TTITLE0=Confession Blues
TTITLE1=Baby Let Me Hold Your Hand
TTITLE2=It Should've Been Me
TTITLE3=Don't You Know
TTITLE4=Don't Put All Your Dreams in One Basket
TTITLE5=Late in the Evening Blues
TTITLE6=She's on the Ball
TTITLE7=Sittin' on Top of the World
TTITLE8=Can't You See Darlin'
TTITLE9=A Sentimental Blues
TTITLE10=Kiss Me Baby
TTITLE11=Heartbreaker
TTITLE12=I'm Movin' On
TTITLE13=Talkin' About You
TTITLE14=Tell Me How Do You Feel
TTITLE15=You Be My Baby
TTITLE16=I Got a Woman
TTITLE17=What'd I Say
TTITLE18=Georgia on My Mind
TTITLE19=Some Day (Blues is My Middle Name)
TTITLE20=Baby Won't You Please Come Home
TTITLE21=Ain't That Fine
TTITLE22=This Love of Mine
TTITLE23=I'm Going Down to the River
EXTD=YEAR: 2003
EXTT0=
EXTT1=
EXTT2=
EXTT3=
EXTT4=
EXTT5=
EXTT6=
EXTT7=
EXTT8=
EXTT9=
EXTT10=
EXTT11=
EXTT12=
EXTT13=
EXTT14=
EXTT15=
EXTT16=
EXTT17=
EXTT18=
EXTT19=
EXTT20=
EXTT21=
EXTT22=
EXTT23=
PLAYORDER=
